<?xml version="1.0" encoding="UTF-8"?>
<!DOCTYPE svg PUBLIC "-//W3C//DTD SVG 1.1//EN" "http://www.w3.org/Graphics/SVG/1.1/DTD/svg11.dtd">
<svg xmlns="http://www.w3.org/2000/svg" version="1.1" width="600px" height="600px" style="shape-rendering:geometricPrecision; text-rendering:geometricPrecision; image-rendering:optimizeQuality; fill-rule:evenodd; clip-rule:evenodd" xmlns:xlink="http://www.w3.org/1999/xlink">
<g><path style="opacity:1" fill="#fefefe" d="M -0.5,-0.5 C 199.5,-0.5 399.5,-0.5 599.5,-0.5C 599.5,199.5 599.5,399.5 599.5,599.5C 399.5,599.5 199.5,599.5 -0.5,599.5C -0.5,399.5 -0.5,199.5 -0.5,-0.5 Z"/></g>
<g><path style="opacity:1" fill="#c74c41" d="M 263.5,70.5 C 287.33,69.3368 311.33,69.1702 335.5,70C 336.252,70.6708 336.586,71.5041 336.5,72.5C 313.202,71.1873 289.869,71.1873 266.5,72.5C 269.242,75.3166 270.908,78.6499 271.5,82.5C 267.595,79.2736 264.929,75.2736 263.5,70.5 Z"/></g>
<g><path style="opacity:1" fill="#d8251b" d="M 336.5,72.5 C 347.891,91.2364 358.891,110.236 369.5,129.5C 370.315,133.144 371.148,136.811 372,140.5C 375.537,141.643 376.704,143.809 375.5,147C 377.927,147.627 379.927,148.794 381.5,150.5C 382.052,155.137 383.886,159.137 387,162.5C 387.495,164.473 387.662,166.473 387.5,168.5C 388.822,168.33 389.989,168.663 391,169.5C 392.044,171.715 392.71,174.048 393,176.5C 393.667,175.167 394.333,175.167 395,176.5C 397.122,179.137 398.455,182.137 399,185.5C 399.278,184.584 399.778,183.918 400.5,183.5C 412.254,202.001 423.254,221.001 433.5,240.5C 433.343,241.873 433.51,243.207 434,244.5C 439.951,254.319 445.784,264.319 451.5,274.5C 451.957,275.298 452.624,275.631 453.5,275.5C 460.254,285.334 466.254,295.667 471.5,306.5C 471.5,308.5 471.5,310.5 471.5,312.5C 472.5,312.5 473.5,312.5 474.5,312.5C 475.167,314.5 475.833,316.5 476.5,318.5C 453.831,318.667 431.164,318.5 408.5,318C 407.717,315.882 406.384,314.382 404.5,313.5C 401.343,309.194 398.676,304.528 396.5,299.5C 393.386,291.964 390.386,284.298 387.5,276.5C 386.5,276.5 385.5,276.5 384.5,276.5C 386.571,272.546 385.571,269.713 381.5,268C 382.668,266.594 382.335,265.428 380.5,264.5C 379.311,263.571 377.978,263.238 376.5,263.5C 376.5,260.833 376.5,258.167 376.5,255.5C 375.448,255.649 374.448,255.483 373.5,255C 371.235,252.023 369.235,248.856 367.5,245.5C 366.583,244.873 365.583,244.539 364.5,244.5C 364.5,244.167 364.5,243.833 364.5,243.5C 363.951,241.099 363.118,238.765 362,236.5C 361.124,234.365 359.624,233.031 357.5,232.5C 355.642,230.117 354.308,227.45 353.5,224.5C 348.946,214.073 343.446,204.073 337,194.5C 336.047,191.568 335.547,188.568 335.5,185.5C 333.567,185.271 331.9,184.438 330.5,183C 329.717,180.882 328.384,179.382 326.5,178.5C 326.244,176.208 326.577,174.041 327.5,172C 324.583,171.338 323.25,169.505 323.5,166.5C 322.5,166.5 321.5,166.5 320.5,166.5C 320.5,164.167 320.5,161.833 320.5,159.5C 319.448,159.649 318.448,159.483 317.5,159C 315.917,157.242 314.25,155.742 312.5,154.5C 312.5,154.167 312.5,153.833 312.5,153.5C 312.119,150.507 310.953,147.841 309,145.5C 308.289,143.101 308.456,140.768 309.5,138.5C 305.371,138.328 302.871,136.328 302,132.5C 301.329,131.748 300.496,131.414 299.5,131.5C 296.076,127.656 293.409,123.323 291.5,118.5C 290.248,114.398 288.248,110.732 285.5,107.5C 285.092,103.427 283.092,100.427 279.5,98.5C 276.535,93.2753 273.869,87.942 271.5,82.5C 270.908,78.6499 269.242,75.3166 266.5,72.5C 289.869,71.1873 313.202,71.1873 336.5,72.5 Z"/></g>
<g><path style="opacity:1" fill="#625d5c" d="M 263.5,70.5 C 264.929,75.2736 267.595,79.2736 271.5,82.5C 273.869,87.942 276.535,93.2753 279.5,98.5C 281.653,101.297 283.319,104.297 284.5,107.5C 285.185,112.231 287.518,115.898 291.5,118.5C 293.409,123.323 296.076,127.656 299.5,131.5C 299.833,132.167 300.167,132.833 300.5,133.5C 298.926,133.937 297.759,134.937 297,136.5C 261.822,197.527 226.655,258.527 191.5,319.5C 167.661,319.169 143.994,319.502 120.5,320.5C 119.475,320.103 119.308,319.437 120,318.5C 168.061,235.945 215.894,153.279 263.5,70.5 Z"/></g>
<g><path style="opacity:1" fill="#a54038" d="M 279.5,98.5 C 283.092,100.427 285.092,103.427 285.5,107.5C 285.167,107.5 284.833,107.5 284.5,107.5C 283.319,104.297 281.653,101.297 279.5,98.5 Z"/></g>
<g><path style="opacity:1" fill="#834f49" d="M 284.5,107.5 C 284.833,107.5 285.167,107.5 285.5,107.5C 288.248,110.732 290.248,114.398 291.5,118.5C 287.518,115.898 285.185,112.231 284.5,107.5 Z"/></g>
<g><path style="opacity:1" fill="#c83228" d="M 299.5,131.5 C 300.496,131.414 301.329,131.748 302,132.5C 302.871,136.328 305.371,138.328 309.5,138.5C 308.456,140.768 308.289,143.101 309,145.5C 310.953,147.841 312.119,150.507 312.5,153.5C 308.169,147.138 304.169,140.471 300.5,133.5C 300.167,132.833 299.833,132.167 299.5,131.5 Z"/></g>
<g><path style="opacity:1" fill="#c8372e" d="M 369.5,129.5 C 374.255,136.004 378.255,143.004 381.5,150.5C 379.927,148.794 377.927,147.627 375.5,147C 376.704,143.809 375.537,141.643 372,140.5C 371.148,136.811 370.315,133.144 369.5,129.5 Z"/></g>
<g><path style="opacity:1" fill="#c93228" d="M 312.5,154.5 C 314.25,155.742 315.917,157.242 317.5,159C 318.448,159.483 319.448,159.649 320.5,159.5C 320.5,161.833 320.5,164.167 320.5,166.5C 321.5,166.5 322.5,166.5 323.5,166.5C 323.25,169.505 324.583,171.338 327.5,172C 326.577,174.041 326.244,176.208 326.5,178.5C 321.848,170.535 317.182,162.535 312.5,154.5 Z"/></g>
<g><path style="opacity:1" fill="#c9362b" d="M 381.5,150.5 C 388.588,161.002 394.921,172.002 400.5,183.5C 399.778,183.918 399.278,184.584 399,185.5C 398.455,182.137 397.122,179.137 395,176.5C 394.333,175.167 393.667,175.167 393,176.5C 392.71,174.048 392.044,171.715 391,169.5C 389.989,168.663 388.822,168.33 387.5,168.5C 387.662,166.473 387.495,164.473 387,162.5C 383.886,159.137 382.052,155.137 381.5,150.5 Z"/></g>
<g><path style="opacity:1" fill="#c1382e" d="M 326.5,178.5 C 328.384,179.382 329.717,180.882 330.5,183C 331.9,184.438 333.567,185.271 335.5,185.5C 335.547,188.568 336.047,191.568 337,194.5C 343.446,204.073 348.946,214.073 353.5,224.5C 344.011,209.531 335.011,194.198 326.5,178.5 Z"/></g>
<g><path style="opacity:1" fill="#bd3a31" d="M 357.5,232.5 C 359.624,233.031 361.124,234.365 362,236.5C 363.118,238.765 363.951,241.099 364.5,243.5C 361.931,240.039 359.597,236.372 357.5,232.5 Z"/></g>
<g><path style="opacity:1" fill="#c53c33" d="M 433.5,240.5 C 440.922,251.67 447.589,263.337 453.5,275.5C 452.624,275.631 451.957,275.298 451.5,274.5C 445.784,264.319 439.951,254.319 434,244.5C 433.51,243.207 433.343,241.873 433.5,240.5 Z"/></g>
<g><path style="opacity:1" fill="#0b0d0d" d="M 334.5,318.5 C 311.167,319.833 287.833,319.833 264.5,318.5C 275.902,298.031 287.569,277.698 299.5,257.5C 311.443,277.725 323.11,298.058 334.5,318.5 Z"/></g>
<g><path style="opacity:1" fill="#cb3127" d="M 364.5,244.5 C 365.583,244.539 366.583,244.873 367.5,245.5C 369.235,248.856 371.235,252.023 373.5,255C 374.448,255.483 375.448,255.649 376.5,255.5C 376.5,258.167 376.5,260.833 376.5,263.5C 377.978,263.238 379.311,263.571 380.5,264.5C 382.335,265.428 382.668,266.594 381.5,268C 385.571,269.713 386.571,272.546 384.5,276.5C 385.5,276.5 386.5,276.5 387.5,276.5C 390.386,284.298 393.386,291.964 396.5,299.5C 385.596,281.366 374.929,263.033 364.5,244.5 Z"/></g>
<g><path style="opacity:1" fill="#bc3b34" d="M 471.5,306.5 C 474.403,310.63 477.07,314.963 479.5,319.5C 455.092,319.823 430.759,319.49 406.5,318.5C 406.107,316.716 405.441,315.05 404.5,313.5C 406.384,314.382 407.717,315.882 408.5,318C 431.164,318.5 453.831,318.667 476.5,318.5C 475.833,316.5 475.167,314.5 474.5,312.5C 473.5,312.5 472.5,312.5 471.5,312.5C 471.5,310.5 471.5,308.5 471.5,306.5 Z"/></g>
<g><path style="opacity:1" fill="#0a0b0c" d="M 191.5,319.5 C 203.362,340.055 215.362,360.555 227.5,381C 203.5,381.667 179.5,381.667 155.5,381C 143.443,361.051 131.776,340.885 120.5,320.5C 143.994,319.502 167.661,319.169 191.5,319.5 Z"/></g>
<g><path style="opacity:1" fill="#9f9f9f" d="M 264.5,318.5 C 287.833,319.833 311.167,319.833 334.5,318.5C 358.425,319.49 382.425,319.823 406.5,319.5C 430.328,320.498 454.328,320.831 478.5,320.5C 467.086,340.996 455.419,361.33 443.5,381.5C 395.095,381.828 346.761,381.495 298.5,380.5C 287.265,360.364 275.765,340.364 264,320.5C 263.308,319.563 263.475,318.897 264.5,318.5 Z"/></g>
<g><path style="opacity:1" fill="#c58e90" d="M 406.5,318.5 C 430.759,319.49 455.092,319.823 479.5,319.5C 479.5,320.167 479.167,320.5 478.5,320.5C 454.328,320.831 430.328,320.498 406.5,319.5C 406.5,319.167 406.5,318.833 406.5,318.5 Z"/></g>
<g><path style="opacity:1" fill="#e5e5e5" d="M 298.5,380.5 C 346.761,381.495 395.095,381.828 443.5,381.5C 419.502,382.167 395.336,382.5 371,382.5C 346.491,382.5 322.324,381.833 298.5,380.5 Z"/></g>
<g><path style="opacity:1" fill="#cccccc" d="M 267.5,409.5 C 295.502,409.333 323.502,409.5 351.5,410C 356.833,410.667 362.167,411.333 367.5,412C 360.14,412.383 352.807,413.05 345.5,414C 308.835,414.5 272.168,414.667 235.5,414.5C 231.688,413.676 227.688,413.176 223.5,413C 222.833,412.667 222.167,412.333 221.5,412C 236.72,409.706 252.053,408.872 267.5,409.5 Z"/></g>
<g><path style="opacity:1" fill="#dbdbdb" d="M 267.5,409.5 C 304.705,407.877 342.038,408.377 379.5,411C 380.833,411.333 382.167,411.667 383.5,412C 380.833,412.667 378.167,413.333 375.5,414C 328.675,415.669 282.008,415.836 235.5,414.5C 272.168,414.667 308.835,414.5 345.5,414C 352.807,413.05 360.14,412.383 367.5,412C 362.167,411.333 356.833,410.667 351.5,410C 323.502,409.5 295.502,409.333 267.5,409.5 Z"/></g>
<g><path style="opacity:1" fill="#979796" d="M 141.5,444.5 C 160.823,443.324 169.99,452.324 169,471.5C 164.155,486.51 153.988,492.01 138.5,488C 124.934,479.503 121.767,468.003 129,453.5C 132.284,449.016 136.451,446.016 141.5,444.5 Z"/></g>
<g><path style="opacity:1" fill="#969695" d="M 336.5,445.5 C 344.84,445.334 353.173,445.5 361.5,446C 370.301,449.096 373.801,455.263 372,464.5C 370.395,470.438 366.562,473.938 360.5,475C 355.177,475.499 349.844,475.666 344.5,475.5C 344.5,479.833 344.5,484.167 344.5,488.5C 341.833,488.5 339.167,488.5 336.5,488.5C 336.5,474.167 336.5,459.833 336.5,445.5 Z"/></g>
<g><path style="opacity:1" fill="#959593" d="M 248.5,452.5 C 240.5,452.5 232.5,452.5 224.5,452.5C 224.5,456.167 224.5,459.833 224.5,463.5C 232.167,463.5 239.833,463.5 247.5,463.5C 247.5,465.833 247.5,468.167 247.5,470.5C 239.833,470.5 232.167,470.5 224.5,470.5C 224.5,473.833 224.5,477.167 224.5,480.5C 232.5,480.5 240.5,480.5 248.5,480.5C 248.5,483.167 248.5,485.833 248.5,488.5C 237.833,488.5 227.167,488.5 216.5,488.5C 216.5,474.167 216.5,459.833 216.5,445.5C 227.167,445.5 237.833,445.5 248.5,445.5C 248.5,447.833 248.5,450.167 248.5,452.5 Z"/></g>
<g><path style="opacity:1" fill="#969696" d="M 255.5,445.5 C 258.898,445.18 262.232,445.513 265.5,446.5C 269.474,452.307 273.64,457.974 278,463.5C 282.167,457.833 286.333,452.167 290.5,446.5C 293.768,445.513 297.102,445.18 300.5,445.5C 300.5,459.833 300.5,474.167 300.5,488.5C 297.833,488.5 295.167,488.5 292.5,488.5C 292.666,478.161 292.5,467.828 292,457.5C 287.808,463.893 283.141,469.893 278,475.5C 272.645,470.132 267.978,464.132 264,457.5C 263.5,467.828 263.334,478.161 263.5,488.5C 260.833,488.5 258.167,488.5 255.5,488.5C 255.5,474.167 255.5,459.833 255.5,445.5 Z"/></g>
<g><path style="opacity:1" fill="#979796" d="M 320.5,445.5 C 323.167,445.5 325.833,445.5 328.5,445.5C 328.5,459.833 328.5,474.167 328.5,488.5C 325.833,488.5 323.167,488.5 320.5,488.5C 320.5,474.167 320.5,459.833 320.5,445.5 Z"/></g>
<g><path style="opacity:1" fill="#fcfcfc" d="M 144.5,451.5 C 157.423,451.93 162.923,458.597 161,471.5C 159.807,476.694 156.64,479.86 151.5,481C 142.536,483.437 136.702,480.27 134,471.5C 131.608,461.393 135.108,454.727 144.5,451.5 Z"/></g>
<g><path style="opacity:1" fill="#cececd" d="M 248.5,452.5 C 241.018,453.492 233.352,453.825 225.5,453.5C 225.5,456.5 225.5,459.5 225.5,462.5C 233.019,462.175 240.352,462.508 247.5,463.5C 239.833,463.5 232.167,463.5 224.5,463.5C 224.5,459.833 224.5,456.167 224.5,452.5C 232.5,452.5 240.5,452.5 248.5,452.5 Z"/></g>
<g><path style="opacity:1" fill="#f8f8f8" d="M 344.5,452.5 C 349.511,452.334 354.511,452.501 359.5,453C 366.154,457.951 366.154,462.951 359.5,468C 354.511,468.499 349.511,468.666 344.5,468.5C 344.5,463.167 344.5,457.833 344.5,452.5 Z"/></g>
<g><path style="opacity:1" fill="#c2c1c0" d="M 464.5,445.5 C 464.5,459.5 464.5,473.5 464.5,487.5C 466.833,487.5 469.167,487.5 471.5,487.5C 471.168,477.478 471.501,467.478 472.5,457.5C 473.107,457.624 473.44,457.957 473.5,458.5C 472.506,468.319 472.173,478.319 472.5,488.5C 469.5,488.5 466.5,488.5 463.5,488.5C 463.171,473.99 463.504,459.657 464.5,445.5 Z"/></g>
<g><path style="opacity:1" fill="#979796" d="M 175.5,445.5 C 183.84,445.334 192.173,445.5 200.5,446C 211.494,450.495 214.161,457.995 208.5,468.5C 206.343,470.412 204.009,472.079 201.5,473.5C 205.126,478.461 209.126,483.128 213.5,487.5C 210.216,488.657 206.882,488.824 203.5,488C 199.5,483.333 195.5,478.667 191.5,474C 188.854,473.503 186.187,473.336 183.5,473.5C 183.5,478.5 183.5,483.5 183.5,488.5C 180.833,488.5 178.167,488.5 175.5,488.5C 175.5,474.167 175.5,459.833 175.5,445.5 Z"/></g>
<g><path style="opacity:1" fill="#fafaf9" d="M 183.5,452.5 C 188.511,452.334 193.511,452.501 198.5,453C 204.617,456.913 204.951,461.246 199.5,466C 194.177,466.499 188.844,466.666 183.5,466.5C 183.5,461.833 183.5,457.167 183.5,452.5 Z"/></g>
<g><path style="opacity:1" fill="#989897" d="M 389.5,443.5 C 395.563,442.838 401.23,444.004 406.5,447C 412.082,451.043 411.415,453.877 404.5,455.5C 399.641,450.516 393.975,449.35 387.5,452C 384.966,454.747 384.966,457.413 387.5,460C 393.934,461.349 400.268,463.015 406.5,465C 413.437,470.665 414.271,477.165 409,484.5C 399.249,490.973 389.416,491.139 379.5,485C 377.919,483.172 376.585,481.172 375.5,479C 377.336,477.581 379.336,476.414 381.5,475.5C 382.998,477.829 384.998,479.663 387.5,481C 392.755,482.047 397.755,481.547 402.5,479.5C 404.458,475.273 403.458,472.106 399.5,470C 393.538,469.809 387.872,468.475 382.5,466C 376.927,460.843 376.094,455.01 380,448.5C 382.995,446.347 386.162,444.681 389.5,443.5 Z"/></g>
<g><path style="opacity:1" fill="#969695" d="M 464.5,445.5 C 467.518,445.335 470.518,445.502 473.5,446C 478,451.833 482.5,457.667 487,463.5C 491.167,457.833 495.333,452.167 499.5,446.5C 502.768,445.513 506.102,445.18 509.5,445.5C 509.5,459.833 509.5,474.167 509.5,488.5C 506.833,488.5 504.167,488.5 501.5,488.5C 501.666,478.161 501.5,467.828 501,457.5C 496.396,463.722 491.563,469.722 486.5,475.5C 481.79,470.123 477.457,464.457 473.5,458.5C 473.44,457.957 473.107,457.624 472.5,457.5C 471.501,467.478 471.168,477.478 471.5,487.5C 469.167,487.5 466.833,487.5 464.5,487.5C 464.5,473.5 464.5,459.5 464.5,445.5 Z"/></g>
<g><path style="opacity:1" fill="#979796" d="M 92.5,445.5 C 95.1667,445.5 97.8333,445.5 100.5,445.5C 100.5,457.167 100.5,468.833 100.5,480.5C 107.833,480.5 115.167,480.5 122.5,480.5C 122.5,483.167 122.5,485.833 122.5,488.5C 112.5,488.5 102.5,488.5 92.5,488.5C 92.5,474.167 92.5,459.833 92.5,445.5 Z"/></g>
<g><path style="opacity:1" fill="#979896" d="M 418.5,445.5 C 421.167,445.5 423.833,445.5 426.5,445.5C 426.334,454.839 426.5,464.173 427,473.5C 427.971,479.139 431.304,481.805 437,481.5C 443.044,481.46 446.71,478.46 448,472.5C 448.5,463.506 448.666,454.506 448.5,445.5C 451.167,445.5 453.833,445.5 456.5,445.5C 456.903,456.231 456.403,466.898 455,477.5C 451.615,485.617 445.449,489.283 436.5,488.5C 428.864,488.698 423.364,485.365 420,478.5C 418.569,467.578 418.069,456.578 418.5,445.5 Z"/></g>
<g><path style="opacity:1" fill="#c7c7c7" d="M 313.5,504.5 C 319.979,503.509 326.646,503.176 333.5,503.5C 333.5,505.167 333.5,506.833 333.5,508.5C 330.833,508.5 328.167,508.5 325.5,508.5C 327.607,507.532 329.941,507.198 332.5,507.5C 332.5,506.5 332.5,505.5 332.5,504.5C 326.167,504.5 319.833,504.5 313.5,504.5 Z"/></g>
<g><path style="opacity:1" fill="#c8c8c6" d="M 446.5,504.5 C 440.167,504.5 433.833,504.5 427.5,504.5C 427.5,505.5 427.5,506.5 427.5,507.5C 430.059,507.198 432.393,507.532 434.5,508.5C 431.833,508.5 429.167,508.5 426.5,508.5C 426.5,506.833 426.5,505.167 426.5,503.5C 433.354,503.176 440.021,503.509 446.5,504.5 Z"/></g>
<g><path style="opacity:1" fill="#989897" d="M 252.5,504.5 C 257.844,504.334 263.177,504.501 268.5,505C 274.348,510.909 273.681,515.909 266.5,520C 268.5,522.333 270.5,524.667 272.5,527C 270.421,527.808 268.421,527.641 266.5,526.5C 264.369,522.346 261.035,520.346 256.5,520.5C 256.5,522.833 256.5,525.167 256.5,527.5C 255.167,527.5 253.833,527.5 252.5,527.5C 252.5,519.833 252.5,512.167 252.5,504.5 Z"/></g>
<g><path style="opacity:1" fill="#afafaf" d="M 222.5,524.5 C 218.154,524.334 213.821,524.501 209.5,525C 212.063,525.763 212.063,526.263 209.5,526.5C 207.084,525.965 206.917,524.965 209,523.5C 209.5,517.175 209.666,510.842 209.5,504.5C 208.5,504.5 207.5,504.5 206.5,504.5C 206.5,512.167 206.5,519.833 206.5,527.5C 211.833,527.5 217.167,527.5 222.5,527.5C 217.025,528.489 211.358,528.822 205.5,528.5C 205.5,520.167 205.5,511.833 205.5,503.5C 207.167,503.5 208.833,503.5 210.5,503.5C 210.5,510.167 210.5,516.833 210.5,523.5C 214.702,523.183 218.702,523.517 222.5,524.5 Z"/></g>
<g><path style="opacity:1" fill="#c9c9c7" d="M 395.5,504.5 C 397.265,503.539 399.265,503.205 401.5,503.5C 401.5,511.833 401.5,520.167 401.5,528.5C 399.585,528.784 397.919,528.451 396.5,527.5C 397.833,527.5 399.167,527.5 400.5,527.5C 400.5,519.833 400.5,512.167 400.5,504.5C 398.833,504.5 397.167,504.5 395.5,504.5 Z"/></g>
<g><path style="opacity:1" fill="#999999" d="M 185.5,503.5 C 201.859,504.051 206.192,511.551 198.5,526C 189.709,530.732 182.876,528.899 178,520.5C 176.573,513.095 179.073,507.429 185.5,503.5 Z"/></g>
<g><path style="opacity:1" fill="#fbfbfa" d="M 186.5,507.5 C 195.705,507.206 199.205,511.54 197,520.5C 192.333,525.833 187.667,525.833 183,520.5C 181.539,515.326 182.706,510.993 186.5,507.5 Z"/></g>
<g><path style="opacity:1" fill="#faf9f8" d="M 256.5,508.5 C 259.85,508.335 263.183,508.502 266.5,509C 267.833,511 267.833,513 266.5,515C 263.183,515.498 259.85,515.665 256.5,515.5C 256.5,513.167 256.5,510.833 256.5,508.5 Z"/></g>
<g><path style="opacity:1" fill="#bfbfbe" d="M 309.5,504.5 C 308.167,504.5 306.833,504.5 305.5,504.5C 305.5,512.167 305.5,519.833 305.5,527.5C 306.833,527.5 308.167,527.5 309.5,527.5C 308.081,528.451 306.415,528.784 304.5,528.5C 304.5,520.167 304.5,511.833 304.5,503.5C 306.415,503.216 308.081,503.549 309.5,504.5 Z"/></g>
<g><path style="opacity:1" fill="#969696" d="M 309.5,504.5 C 309.5,512.167 309.5,519.833 309.5,527.5C 308.167,527.5 306.833,527.5 305.5,527.5C 305.5,519.833 305.5,512.167 305.5,504.5C 306.833,504.5 308.167,504.5 309.5,504.5 Z"/></g>
<g><path style="opacity:1" fill="#c3c3c3" d="M 313.5,507.5 C 316.167,507.5 318.833,507.5 321.5,507.5C 321.5,514.167 321.5,520.833 321.5,527.5C 322.833,527.5 324.167,527.5 325.5,527.5C 324.081,528.451 322.415,528.784 320.5,528.5C 320.5,521.833 320.5,515.167 320.5,508.5C 317.941,508.802 315.607,508.468 313.5,507.5 Z"/></g>
<g><path style="opacity:1" fill="#949493" d="M 313.5,504.5 C 319.833,504.5 326.167,504.5 332.5,504.5C 332.5,505.5 332.5,506.5 332.5,507.5C 329.941,507.198 327.607,507.532 325.5,508.5C 325.5,514.833 325.5,521.167 325.5,527.5C 324.167,527.5 322.833,527.5 321.5,527.5C 321.5,520.833 321.5,514.167 321.5,507.5C 318.833,507.5 316.167,507.5 313.5,507.5C 313.5,506.5 313.5,505.5 313.5,504.5 Z"/></g>
<g><path style="opacity:1" fill="#999999" d="M 231.5,503.5 C 243.563,502.398 249.063,507.731 248,519.5C 245.315,527.415 239.815,530.249 231.5,528C 223.386,523.272 221.553,516.772 226,508.5C 227.812,506.7 229.645,505.033 231.5,503.5 Z"/></g>
<g><path style="opacity:1" fill="#f8f8f8" d="M 233.5,507.5 C 238.732,506.531 242.232,508.531 244,513.5C 245.05,521.572 241.55,525.072 233.5,524C 228.931,521.459 227.431,517.625 229,512.5C 230.025,510.313 231.525,508.646 233.5,507.5 Z"/></g>
<g><path style="opacity:1" fill="#949493" d="M 446.5,504.5 C 446.5,505.5 446.5,506.5 446.5,507.5C 443.833,507.5 441.167,507.5 438.5,507.5C 438.5,514.167 438.5,520.833 438.5,527.5C 437.167,527.5 435.833,527.5 434.5,527.5C 434.5,521.167 434.5,514.833 434.5,508.5C 432.393,507.532 430.059,507.198 427.5,507.5C 427.5,506.5 427.5,505.5 427.5,504.5C 433.833,504.5 440.167,504.5 446.5,504.5 Z"/></g>
<g><path style="opacity:1" fill="#cdcdcc" d="M 252.5,504.5 C 252.5,512.167 252.5,519.833 252.5,527.5C 253.833,527.5 255.167,527.5 256.5,527.5C 255.081,528.451 253.415,528.784 251.5,528.5C 251.174,520.316 251.508,512.316 252.5,504.5 Z"/></g>
<g><path style="opacity:1" fill="#989896" d="M 395.5,504.5 C 397.167,504.5 398.833,504.5 400.5,504.5C 400.5,512.167 400.5,519.833 400.5,527.5C 399.167,527.5 397.833,527.5 396.5,527.5C 396.666,522.156 396.499,516.823 396,511.5C 393.659,514.671 391.159,517.671 388.5,520.5C 385.777,518.066 383.277,515.399 381,512.5C 380.667,517.5 380.333,522.5 380,527.5C 378.644,528.38 377.144,528.714 375.5,528.5C 375.5,520.5 375.5,512.5 375.5,504.5C 377.527,504.338 379.527,504.505 381.5,505C 383.674,508.004 386.008,510.837 388.5,513.5C 391.072,510.69 393.406,507.69 395.5,504.5 Z"/></g>
<g><path style="opacity:1" fill="#9a9a99" d="M 286.5,503.5 C 289.518,503.335 292.518,503.502 295.5,504C 297.555,504.687 299.221,505.854 300.5,507.5C 298.681,509.911 296.681,510.078 294.5,508C 292.167,507.333 289.833,507.333 287.5,508C 286.14,509.938 286.473,511.604 288.5,513C 292.725,512.98 296.558,514.147 300,516.5C 302.813,522.039 301.313,525.872 295.5,528C 290.601,529.125 286.101,528.291 282,525.5C 282.28,520.854 284.113,520.354 287.5,524C 290.167,524.667 292.833,524.667 295.5,524C 296.833,522.333 296.833,520.667 295.5,519C 291.076,518.181 286.909,516.681 283,514.5C 280.35,509.562 281.517,505.895 286.5,503.5 Z"/></g>
<g><path style="opacity:1" fill="#999997" d="M 350.5,504.5 C 352.792,504.244 354.959,504.577 357,505.5C 360.442,512.717 363.609,520.05 366.5,527.5C 364.955,528.452 363.288,528.785 361.5,528.5C 361.579,527.07 361.246,525.736 360.5,524.5C 356.205,523.339 351.871,523.172 347.5,524C 346.393,527.805 344.06,528.972 340.5,527.5C 344.121,519.929 347.454,512.262 350.5,504.5 Z"/></g>
<g><path style="opacity:1" fill="#f3f4f2" d="M 352.5,509.5 C 353.376,509.369 354.043,509.702 354.5,510.5C 355.801,513.427 356.801,516.427 357.5,519.5C 354.753,519.813 352.086,519.48 349.5,518.5C 351.105,515.686 352.105,512.686 352.5,509.5 Z"/></g>
<g><path style="opacity:1" fill="#9a9a99" d="M 153.5,503.5 C 159.434,502.889 165.1,503.722 170.5,506C 177.788,514.356 176.788,521.69 167.5,528C 162.845,528.499 158.179,528.666 153.5,528.5C 153.5,520.167 153.5,511.833 153.5,503.5 Z"/></g>
<g><path style="opacity:1" fill="#fbfbfb" d="M 158.5,508.5 C 170.819,507.659 173.819,512.493 167.5,523C 164.518,523.498 161.518,523.665 158.5,523.5C 158.5,518.5 158.5,513.5 158.5,508.5 Z"/></g>
<g><path style="opacity:1" fill="#969695" d="M 422.5,523.5 C 422.5,524.833 422.5,526.167 422.5,527.5C 416.833,527.5 411.167,527.5 405.5,527.5C 405.5,519.833 405.5,512.167 405.5,504.5C 411.31,503.51 417.31,503.177 423.5,503.5C 423.5,505.167 423.5,506.833 423.5,508.5C 418.833,508.5 414.167,508.5 409.5,508.5C 409.5,510.5 409.5,512.5 409.5,514.5C 413.833,514.5 418.167,514.5 422.5,514.5C 422.5,515.833 422.5,517.167 422.5,518.5C 418.167,518.5 413.833,518.5 409.5,518.5C 409.5,520.167 409.5,521.833 409.5,523.5C 413.833,523.5 418.167,523.5 422.5,523.5 Z"/></g>
<g><path style="opacity:1" fill="#91918f" d="M 222.5,524.5 C 222.5,525.5 222.5,526.5 222.5,527.5C 217.167,527.5 211.833,527.5 206.5,527.5C 206.5,519.833 206.5,512.167 206.5,504.5C 207.5,504.5 208.5,504.5 209.5,504.5C 209.666,510.842 209.5,517.175 209,523.5C 206.917,524.965 207.084,525.965 209.5,526.5C 212.063,526.263 212.063,525.763 209.5,525C 213.821,524.501 218.154,524.334 222.5,524.5 Z"/></g>
<g><path style="opacity:1" fill="#c8c9c8" d="M 405.5,504.5 C 405.5,512.167 405.5,519.833 405.5,527.5C 411.167,527.5 416.833,527.5 422.5,527.5C 422.5,526.167 422.5,524.833 422.5,523.5C 423.451,524.919 423.784,526.585 423.5,528.5C 417.167,528.5 410.833,528.5 404.5,528.5C 404.174,520.316 404.508,512.316 405.5,504.5 Z"/></g>
</svg>
